<svg xmlns="http://www.w3.org/2000/svg" viewBox="0 0 240 240" fill="none" role="img" aria-label="OD-OMS Logo">
  <!-- Top-left rounded leaf, purple -->
  <path d="M58 28 C46 28 38 36 38 50 L38 78 C38 92 46 100 60 100 L88 100 C100 100 108 92 108 78 L108 50 C108 36 100 28 88 28 Z" fill="#5b2d8a"/>

  <!-- Top-right rounded leaf, pink (mirror of left) -->
  <path d="M152 28 C140 28 132 36 132 50 L132 78 C132 92 140 100 152 100 L180 100 C194 100 202 92 202 78 L202 50 C202 36 194 28 182 28 Z" fill="#e91e63"/>

  <!-- Heart base — full purple -->
  <path d="M120 215 L34 132 C18 117 16 92 32 78 C50 62 80 65 100 87 L120 110 L140 87 C160 65 190 62 208 78 C224 92 222 117 206 132 Z" fill="#5b2d8a"/>

  <!-- Pink overlay using diagonal clip from upper-right toward lower-right -->
  <defs>
    <clipPath id="pinkOverlay">
      <polygon points="120,110 235,40 240,140 155,222"/>
    </clipPath>
  </defs>
  <path d="M120 215 L34 132 C18 117 16 92 32 78 C50 62 80 65 100 87 L120 110 L140 87 C160 65 190 62 208 78 C224 92 222 117 206 132 Z" fill="#e91e63" clip-path="url(#pinkOverlay)"/>
</svg>
