<svg xmlns="http://www.w3.org/2000/svg" viewBox="0 0 240 240" fill="none" role="img" aria-label="OD-OMS Logo">
  <!-- Top-left rounded leaf, purple (rounded all corners except sharper bottom-left) -->
  <path d="M50 18 C40 18 32 26 32 36 L32 64 C32 78 42 86 56 86 L72 86 C84 86 92 78 92 66 L92 36 C92 26 84 18 74 18 Z" fill="#5b2d8a"/>

  <!-- Top-right rounded leaf, pink (mirror of left, sharper bottom-right) -->
  <path d="M166 18 C156 18 148 26 148 36 L148 66 C148 78 156 86 168 86 L184 86 C198 86 208 78 208 64 L208 36 C208 26 200 18 190 18 Z" fill="#e91e63"/>

  <!-- Heart base — full purple -->
  <path d="M120 222 L40 144 C24 128 22 102 38 86 C56 70 84 72 102 90 L120 110 L138 90 C156 72 184 70 202 86 C218 102 216 128 200 144 Z" fill="#5b2d8a"/>

  <!-- Pink diagonal overlay covering top-right to bottom-right region of heart -->
  <defs>
    <clipPath id="heartPink">
      <polygon points="120,110 240,40 240,150 165,225"/>
    </clipPath>
  </defs>
  <path d="M120 222 L40 144 C24 128 22 102 38 86 C56 70 84 72 102 90 L120 110 L138 90 C156 72 184 70 202 86 C218 102 216 128 200 144 Z" fill="#e91e63" clip-path="url(#heartPink)"/>
</svg>
