<svg xmlns="http://www.w3.org/2000/svg" viewBox="135 -10 730 1010" width="100%" height="100%">
  <defs>
    <clipPath id="pinkClip">
      <path d="M 500 450 A 159.1 159.1 0 0 1 725 675 Z" />
    </clipPath>
    <filter id="shadowBlur" x="-20%" y="-20%" width="140%" height="140%">
      <feGaussianBlur stdDeviation="6" />
    </filter>
  </defs>

  <path fill="#4B247A" d="M 475 90 L 355 90 A 120 120 0 0 0 235 210 L 235 230 A 120 120 0 0 0 355 350 L 475 350 Z" />

  <path fill="#ED2880" d="M 525 90 L 645 90 A 120 120 0 0 1 765 210 L 765 350 L 645 350 A 120 120 0 0 1 525 230 Z" />

  <path fill="#ED2880" d="M 500 450 A 159.1 159.1 0 0 1 725 675 Z" />

  <path fill="#000000" opacity="0.22" transform="translate(8, 8)" filter="url(#shadowBlur)" clip-path="url(#pinkClip)" d="M 500 900 L 275 675 A 159.1 159.1 0 0 1 500 450 L 725 675 Z" />

  <path fill="#4B247A" d="M 500 900 L 275 675 A 159.1 159.1 0 0 1 500 450 L 725 675 Z" />

</svg>